<?xml version="1.0" encoding="utf-8"?>
<!-- Generator: Adobe Illustrator 22.0.0, SVG Export Plug-In . SVG Version: 6.00 Build 0)  -->
<svg version="1.1" id="Слой_1" xmlns="http://www.w3.org/2000/svg" xmlns:xlink="http://www.w3.org/1999/xlink" x="0px" y="0px"
	 viewBox="0 0 86.9 71.4" style="enable-background:new 0 0 86.9 71.4;" xml:space="preserve">
<style type="text/css">
	.st0{fill:url(#SVGID_1_);}
	.st1{fill:url(#SVGID_2_);}
</style>
<title>Logo_PB</title>
<g id="Слой_2_1_">
	<g id="Режим_изоляции">
		<linearGradient id="SVGID_1_" gradientUnits="userSpaceOnUse" x1="-6.464758e-04" y1="43.0797" x2="42.0019" y2="43.0797">
			<stop  offset="0" style="stop-color:#F70020"/>
			<stop  offset="1" style="stop-color:#FF0038"/>
		</linearGradient>
		<path class="st0" d="M31.7,17.5c-3.2-1.8-6.9-2.8-10.6-2.8c-1.6,0-3.2,0.2-4.8,0.5c-1.5,0.3-3,0.8-4.4,1.5c-1.4,0.7-2.7,1.5-4,2.5
			c-1.3,1-2.4,2.1-3.4,3.4c-1,1.2-1.9,2.6-2.6,4.1c-0.7,1.5-1.2,3.1-1.4,4.7C0.2,33.3,0,35.2,0,37.2v34.3h13.7V37.6
			c0-1.1,0.1-2.2,0.3-3.3c0.1-0.9,0.4-1.7,0.8-2.4c0.6-1.1,1.5-2,2.6-2.6c2.4-1.3,5.2-1.3,7.6,0c1.1,0.7,1.9,1.6,2.5,2.7
			c0.6,1.2,0.9,2.6,0.9,3.9c0.1,2-0.7,3.9-2.1,5.3c-1.5,1.4-3.5,2.1-5.6,2.1c-1.5,0-3-0.4-4.4-0.9v14c1.4,0.4,2.8,0.5,4.2,0.5
			c2.9,0,5.8-0.5,8.5-1.6c2.6-1,4.9-2.6,6.9-4.5c2-1.9,3.5-4.2,4.6-6.7c1-2.6,1.5-5.5,1.5-8.3c0-3.7-0.9-7.4-2.7-10.6
			C37.5,21.9,34.8,19.3,31.7,17.5z"/>
		<linearGradient id="SVGID_2_" gradientUnits="userSpaceOnUse" x1="44.9196" y1="28.4303" x2="86.9308" y2="28.4303">
			<stop  offset="0" style="stop-color:#F70020"/>
			<stop  offset="1" style="stop-color:#FF0038"/>
		</linearGradient>
		<path class="st1" d="M84.1,25c-1.9-3.2-4.5-5.8-7.8-7.6c-3.3-1.8-7-2.8-10.8-2.7c-1.5,0-2.9,0.2-4.4,0.5v14.1c1.4-0.6,3-0.9,4.5-1
			c1.4,0,2.7,0.4,3.9,1c3.6,2.1,4.8,6.6,2.7,10.2c-1.3,2.4-3.8,3.8-6.4,3.8c-1.3,0-2.5-0.3-3.7-0.9c-1.1-0.6-2-1.5-2.6-2.6
			c-0.8-1.8-1.1-3.7-1-5.7V0H44.9v36c0,3.7,1,7.3,2.8,10.5c1.8,3.2,4.4,5.8,7.6,7.6c3.2,1.8,6.9,2.8,10.6,2.8c3.7,0,7.4-1,10.6-2.9
			C83,50.1,87,43.2,86.9,35.6C87,31.9,86,28.2,84.1,25z"/>
	</g>
</g>
</svg>
